Coordinates
version=1
nRows=26
nColumns=24
inDegrees=yes

Units are S.I. units (second, meters, Newtons, ...)
Angles are in degrees.

endheader
time	pelvis_tilt	pelvis_list	pelvis_rotation	pelvis_tx	pelvis_ty	pelvis_tz	hip_flexion_r	hip_adduction_r	hip_rotation_r	knee_angle_r	ankle_angle_r	subtalar_angle_r	mtp_angle_r	hip_flexion_l	hip_adduction_l	hip_rotation_l	knee_angle_l	ankle_angle_l	subtalar_angle_l	mtp_angle_l	lumbar_extension	lumbar_bending	lumbar_rotation
      1.00000000	      5.21171618	      0.07275929	      0.37726246	      0.59326284	      1.04489957	      0.04532495	     -3.15693045	      1.77270966	     -3.78870096	    -11.51651874	      7.92338782	     -0.00281027	      0.00000000	     18.36560873	     -2.90462331	     -4.08217914	    -57.75237617	      1.46883966	     -0.03158467	      0.00000000	    -16.34070546	      1.68362598	      0.71174573
      1.01666667	      5.27547697	      0.04395944	      0.12609015	      0.59135947	      1.04482327	      0.04641754	     -4.64582956	      1.89724708	     -3.58108127	    -10.75043445	      8.31258171	     -0.00508037	      0.00000000	     19.05035495	     -2.93246992	     -4.50228790	    -53.50588899	      1.72772620	     -0.02587244	      0.00000000	    -16.49904183	      1.55993513	      1.05127347
      1.03333333	      5.31458969	     -0.15883294	     -0.04250829	      0.58938352	      1.04432710	      0.04757922	     -6.19088300	      2.21601429	     -3.48239342	     -9.82414324	      8.61457749	      0.01319074	      0.00000000	     19.54980928	     -3.28798901	     -5.21364974	    -48.74482934	      1.68557554	     -0.00879874	      0.00000000	    -16.66239201	      1.65433079	      1.35985499
      1.05000000	      5.47719050	     -0.48477415	     -0.15613629	      0.58745421	      1.04366876	      0.04829112	     -7.85072328	      2.63376695	     -3.40621320	     -8.95442292	      8.90464001	      0.00936119	      0.00000000	     19.67414008	     -3.78856659	     -6.20866177	    -43.48485229	      1.35014689	      0.00403517	      0.00000000	    -17.01089280	      1.87175545	      1.47458529
      1.06666667	      5.33521491	     -1.06212294	     -0.43249064	      0.58535820	      1.04193449	      0.04913719	     -9.08772826	      3.27293025	     -3.09270196	     -8.26207249	      9.24251284	      0.01508007	      0.00000000	     19.96985641	     -4.55891926	     -7.46548323	    -37.99036152	      0.81765688	      0.01120428	      0.00000000	    -16.85557723	      2.39105701	      1.96267380
      1.08333333	      5.26897105	     -1.44879201	     -0.68977168	      0.58367034	      1.04004856	      0.04941491	    -10.48296410	      3.65007267	     -2.64117220	     -7.50133438	      9.60147087	      0.01498553	      0.00000000	     19.89211690	     -4.95677302	     -8.80861235	    -32.07278061	      0.05201958	      0.00325727	      0.00000000	    -16.93864960	      2.58841296	      2.14962484
      1.10000000	      5.09725100	     -2.00743384	     -0.94617793	      0.58236764	      1.03757539	      0.04991010	    -11.84445050	      4.20780626	     -2.17435950	     -6.66530788	      9.88974060	     -0.00984333	      0.00000000	     19.91065585	     -5.38682650	     -9.79144375	    -26.32467851	     -0.63556675	      0.01989488	      0.00000000	    -16.77756923	      3.05249532	      2.56088290
      1.11666667	      4.87509709	     -2.49191450	     -1.18876473	      0.58103617	      1.03472987	      0.05012011	    -13.01703615	      4.65994404	     -1.56673077	     -6.15138017	     10.35063973	     -0.04775855	      0.00000000	     19.84875345	     -5.52647138	    -10.14280280	    -20.52394102	     -1.23550193	     -0.01215128	      0.00000000	    -16.65070761	      3.42691949	      2.57380781
      1.13333333	      4.71720723	     -3.03600840	     -1.65874866	      0.57952570	      1.03166484	      0.05009161	    -14.14990812	      5.06035069	     -0.73728632	     -5.85605839	     10.86429129	     -0.02080388	      0.00000000	     19.71265036	     -5.70545287	     -9.99664142	    -15.12074315	     -1.55264811	      0.00769827	      0.00000000	    -16.59470614	      3.75682629	      3.08086871
      1.15000000	      4.76216528	     -3.54570697	     -1.90106389	      0.57869113	      1.02871963	      0.04962227	    -15.54330474	      5.43871856	     -0.08379593	     -5.54144381	     11.33805364	     -0.05020255	      0.00000000	     19.20930942	     -5.74907089	     -8.97358858	     -9.96090244	     -1.64731441	     -0.00222996	      0.00000000	    -16.69349310	      4.18582882	      3.38712274
      1.16666667	      4.73198043	     -3.88147303	     -2.24880618	      0.57829533	      1.02543954	      0.04946333	    -16.91854421	      5.60425633	      0.47666333	     -5.16854462	     11.79833197	     -0.07204995	      0.00000000	     18.84286822	     -5.76362835	     -7.75509496	     -5.75289241	     -1.41459286	      0.00477308	      0.00000000	    -16.80693112	      4.19991097	      3.31777064
      1.18333333	      4.85980002	     -4.21553782	     -2.82666338	      0.57777387	      1.02259493	      0.04907908	    -18.20260644	      5.61565211	      1.18882538	     -5.31145237	     12.34518315	     -0.04373665	      0.00000000	     18.27215281	     -5.90265150	     -6.79388816	     -2.43277151	     -1.11935072	      0.01888035	      0.00000000	    -16.94563274	      4.30774892	      4.03144026
      1.20000000	      4.72643058	     -4.36116211	     -3.02776831	      0.57799916	      1.01949362	      0.04853368	    -19.29419678	      5.56665362	      1.47283234	     -5.30523921	     12.69989405	     -0.03044433	      0.00000000	     18.41805179	     -5.84921371	     -5.70302708	     -0.94961795	     -0.54029976	      0.03149116	      0.00000000	    -16.81506075	      4.12933233	      3.64161285
      1.21666667	      4.84470829	     -4.49295889	     -3.32017567	      0.57758324	      1.01725377	      0.04777629	    -20.21992876	      5.42506348	      1.87510678	     -6.08262990	     13.19113382	      0.00524146	      0.00000000	     18.40478627	     -5.82770350	     -4.94105359	     -0.64716052	     -0.27116731	      0.05731803	      0.00000000	    -17.03463486	      3.91853221	      3.88301172
      1.23333333	      4.93165999	     -4.35134980	     -3.64959265	      0.57797403	      1.01541011	      0.04674357	    -21.00627822	      4.97157404	      2.31809834	     -7.07545412	     13.62598106	     -0.04176292	      0.00000000	     18.49094928	     -5.53553680	     -4.47844766	     -1.52006318	     -0.36797382	      0.03139907	      0.00000000	    -17.05148681	      3.36252931	      3.69901007
      1.25000000	      4.93460953	     -4.14803306	     -4.24014434	      0.57948515	      1.01408189	      0.04509240	    -21.56616173	      4.30297974	      2.93172159	     -8.42471339	     13.92206074	     -0.01448347	      0.00000000	     18.64573444	     -5.22577749	     -4.34290584	     -3.29508185	     -0.81435253	     -0.05729977	      0.00000000	    -16.89405915	      2.84388546	      3.98741469
      1.26666667	      4.78156347	     -3.91166450	     -4.27330458	      0.58155287	      1.01269002	      0.04319375	    -21.72367892	      3.85557422	      3.00518425	    -10.27003228	     14.17327572	      0.04321818	      0.00000000	     19.31423261	     -4.78154627	     -3.86779723	     -6.08154435	     -1.45500231	      0.01379747	      0.00000000	    -16.42488761	      2.31692929	      3.75578749
      1.28333333	      4.57841952	     -4.01008058	     -4.52449752	      0.58251836	      1.01176675	      0.04185549	    -21.37047387	      3.71954954	      3.33490414	    -12.90056664	     14.20896328	      0.06447265	      0.00000000	     19.79483891	     -4.79211754	     -3.64953377	     -8.52166559	     -2.63174870	     -0.04880230	      0.00000000	    -16.21416897	      1.99855419	      3.78533372
      1.30000000	      4.44566417	     -3.84947723	     -4.73039078	      0.58501738	      1.01150230	      0.04025714	    -21.15183300	      3.30290255	      3.47485687	    -15.42990812	     13.72429726	      0.06778686	      0.00000000	     20.19776655	     -4.55781599	     -3.64067908	    -11.23010776	     -3.45567179	     -0.00570463	      0.00000000	    -15.81031363	      1.31624812	      3.63217778
      1.31666667	      4.57021840	     -3.59578664	     -4.90454529	      0.58800873	      1.01211387	      0.03842106	    -20.64455567	      2.79235129	      3.49606443	    -18.98345602	     12.91156703	      0.05792793	      0.00000000	     20.15893020	     -4.21669667	     -3.77381500	    -13.74946705	     -3.92291574	      0.00029417	      0.00000000	    -15.63462172	      0.59154945	      3.29640888
      1.33333333	      4.77820909	     -3.31267966	     -4.96765502	      0.59118876	      1.01329594	      0.03638119	    -19.71438636	      2.27204301	      3.19615616	    -23.34817375	     11.53107651	      0.05570521	      0.00000000	     19.82475001	     -3.81090334	     -3.87633990	    -15.94819119	     -4.02014902	     -0.00580752	      0.00000000	    -15.47908924	     -0.14393784	      3.07633347
      1.35000000	      5.20006408	     -2.94202204	     -4.87722434	      0.59452675	      1.01519458	      0.03378475	    -18.46298977	      1.59906442	      2.33248854	    -28.45180145	      9.25998150	      0.04411518	      0.00000000	     19.01950018	     -3.23475653	     -3.91140065	    -17.74822505	     -3.75212084	      0.01505749	      0.00000000	    -15.51764963	     -0.87190251	      2.73401719
      1.36666667	      5.49557838	     -2.49834140	     -4.65063512	      0.59758776	      1.01706778	      0.03044427	    -16.46746845	      0.70586795	      0.88018343	    -34.26685571	      5.97142930	      0.04867841	      0.00000000	     18.11306588	     -2.51763969	     -3.88905132	    -19.08556693	     -3.21590598	      0.01187060	      0.00000000	    -15.47504308	     -1.55917257	      2.18779813
      1.38333333	      5.64311252	     -1.95506064	     -4.50628845	      0.59996256	      1.01881467	      0.02679035	    -13.77448694	     -0.58762326	     -0.89820307	    -40.47122668	      1.78643117	      0.05048659	      0.00000000	     17.12109961	     -1.70073635	     -3.99092892	    -19.92896475	     -2.49636437	     -0.00201262	      0.00000000	    -15.38365555	     -2.25875832	      1.74106690
      1.40000000	      5.75422744	     -1.38111352	     -4.35380721	      0.60159485	      1.02058468	      0.02323102	    -10.82155224	     -2.11764845	     -2.68281210	    -46.42840553	     -2.75987055	      0.03593873	      0.00000000	     16.03634938	     -0.83169274	     -4.04489593	    -20.46658556	     -1.58403799	     -0.01990723	      0.00000000	    -15.23018617	     -2.94297207	      1.11494969
      1.41666667	      5.99720762	     -0.81180600	     -4.28466609	      0.60290922	      1.02307041	      0.01954574	     -8.04678560	     -3.77598577	     -4.12608047	    -51.69066703	     -6.69094215	      0.01602654	      0.00000000	     14.46799810	      0.07591840	     -4.19664576	    -20.32472884	     -0.70062202	     -0.00464577	      0.00000000	    -15.36814673	     -3.56580595	      0.65189459
